D:\PredSim\limbproperties\Ratio80\Ratio80_quasi_random_3.5.mot
version=1
nRows=4
nColumns=124
inDegrees=yes
endheader
                time	         pelvis_tilt	         pelvis_list	     pelvis_rotation	           pelvis_tx	           pelvis_ty	           pelvis_tz	       hip_flexion_r	     hip_adduction_r	      hip_rotation_r	        knee_angle_r	       ankle_angle_r	    subtalar_angle_r	         mtp_angle_r	       hip_flexion_l	     hip_adduction_l	      hip_rotation_l	        knee_angle_l	       ankle_angle_l	    subtalar_angle_l	         mtp_angle_l	    lumbar_extension	      lumbar_bending	     lumbar_rotation	          arm_flex_r	           arm_add_r	           arm_rot_r	        elbow_flex_r	          arm_flex_l	           arm_add_l	           arm_rot_l	        elbow_flex_l	glut_med1_r/activation	glut_med2_r/activation	glut_med3_r/activation	glut_min1_r/activation	glut_min2_r/activation	glut_min3_r/activation	semimem_r/activation	semiten_r/activation	bifemlh_r/activation	bifemsh_r/activation	    sar_r/activation	add_long_r/activation	add_brev_r/activation	add_mag1_r/activation	add_mag2_r/activation	add_mag3_r/activation	    tfl_r/activation	   pect_r/activation	   grac_r/activation	glut_max1_r/activation	glut_max2_r/activation	glut_max3_r/activation	iliacus_r/activation	  psoas_r/activation	quad_fem_r/activation	    gem_r/activation	   peri_r/activation	rect_fem_r/activation	vas_med_r/activation	vas_int_r/activation	vas_lat_r/activation	med_gas_r/activation	lat_gas_r/activation	 soleus_r/activation	tib_post_r/activation	flex_dig_r/activation	flex_hal_r/activation	tib_ant_r/activation	per_brev_r/activation	per_long_r/activation	per_tert_r/activation	ext_dig_r/activation	ext_hal_r/activation	glut_med1_l/activation	glut_med2_l/activation	glut_med3_l/activation	glut_min1_l/activation	glut_min2_l/activation	glut_min3_l/activation	semimem_l/activation	semiten_l/activation	bifemlh_l/activation	bifemsh_l/activation	    sar_l/activation	add_long_l/activation	add_brev_l/activation	add_mag1_l/activation	add_mag2_l/activation	add_mag3_l/activation	    tfl_l/activation	   pect_l/activation	   grac_l/activation	glut_max1_l/activation	glut_max2_l/activation	glut_max3_l/activation	iliacus_l/activation	  psoas_l/activation	quad_fem_l/activation	    gem_l/activation	   peri_l/activation	rect_fem_l/activation	vas_med_l/activation	vas_int_l/activation	vas_lat_l/activation	med_gas_l/activation	lat_gas_l/activation	 soleus_l/activation	tib_post_l/activation	flex_dig_l/activation	flex_hal_l/activation	tib_ant_l/activation	per_brev_l/activation	per_long_l/activation	per_tert_l/activation	ext_dig_l/activation	ext_hal_l/activation	 ercspn_r/activation	 ercspn_l/activation	 intobl_r/activation	 intobl_l/activation	 extobl_r/activation	 extobl_l/activation	
          0.52335846	        -11.63829619	         -1.20264397	         -1.87744249	          1.81288957	          0.89459995	          0.00159179	         39.84715205	          5.75737967	          0.77104008	        -28.60948636	         -5.62239410	         -4.25808448	          0.29217202	          5.05053821	          1.72084861	          3.03049118	        -48.65350394	        -25.93715685	          5.01439849	         12.36121822	          2.12212919	          3.25606621	         -4.00944056	         -0.37138996	        -13.53943095	         13.62334633	         39.57319576	         -0.92925023	        -13.73538737	         19.36257450	         29.10952175	          0.56364193	          0.36302125	          0.28050730	          0.05970925	          0.05000466	          0.11154923	          0.80050871	          0.28951722	          0.71172480	          0.05000194	          0.05000045	          0.08978487	          0.34223750	          0.53029304	          0.41303291	          0.27670160	          0.05000071	          0.06094448	          0.23567765	          0.46513483	          0.31385342	          0.24937453	          0.05000028	          0.05000033	          0.52419963	          0.05000520	          0.59968742	          0.05000022	          0.05886666	          0.06545224	          0.07703975	          0.05101163	          0.05000006	          0.05000001	          0.44643787	          0.20753522	          0.05000028	          0.14567922	          0.17334439	          0.06796883	          0.61457653	          0.56526894	          0.51888564	          0.08582883	          0.05000016	          0.05000168	          0.14677243	          0.11337648	          0.08378663	          0.07165076	          0.05000072	          0.05000063	          0.13723618	          0.48728292	          0.90202797	          0.05910342	          0.05000499	          0.05000126	          0.05000011	          0.99788865	          0.91796966	          0.36179109	          0.05000053	          0.05000017	          0.05000008	          0.63315028	          0.74868926	          0.26040465	          0.69482546	          0.15049783	          0.98387397	          0.05878420	          0.06074620	          0.05621372	          0.16048039	          0.18897016	          0.10409490	          0.14585261	          0.17401784	          0.18071523	          0.10235146	          0.23789070	          0.13062941	          0.20524279	          0.62741551	          0.80221316	          0.24546190	          0.10243216	          0.05000005	          0.22215726	          0.05000051	          0.05000009	
          0.52859204	        -11.59022730	         -1.21634902	         -1.70186289	          1.83174805	          0.89244000	          0.00174818	         39.23334818	          5.95149475	          1.21296675	        -28.35181656	         -4.71122944	         -4.37605316	          0.17677364	          5.95702123	          1.59991274	          2.78146324	        -50.39324063	        -24.92314887	          4.62965491	         11.53820515	          2.17052551	          3.25146063	         -3.89053855	         -0.52654036	        -13.57126699	         13.61197374	         39.35466436	         -0.85857409	        -13.76384469	         19.35785712	         29.07559070	          0.61131325	          0.44090563	          0.25800472	          0.26728816	          0.05209930	          0.16781262	          0.73628521	          0.26628975	          0.65462428	          0.05001868	          0.05000173	          0.08258221	          0.31478056	          0.54089811	          0.45006211	          0.30121680	          0.05000080	          0.05774074	          0.21677015	          0.50817289	          0.34417420	          0.27558785	          0.05000087	          0.05000069	          0.48214408	          0.05000318	          0.70323105	          0.05000030	          0.08268683	          0.09257891	          0.11119385	          0.05000003	          0.05000005	          0.05000000	          0.58962040	          0.41251202	          0.29572433	          0.28952782	          0.15943726	          0.06251580	          0.56527008	          0.51991835	          0.47725657	          0.07894293	          0.05000014	          0.05000012	          0.13499729	          0.10428057	          0.07706474	          0.06698381	          0.05000046	          0.05000046	          0.14933251	          0.48134023	          0.82967286	          0.05436181	          0.05000097	          0.05000066	          0.05000008	          0.99843473	          0.93918640	          0.35279701	          0.05000035	          0.05000011	          0.05000005	          0.58235367	          0.68862315	          0.23951284	          0.63908152	          0.13842367	          0.98804510	          0.05406805	          0.05587264	          0.05170380	          0.14760535	          0.17380944	          0.09574354	          0.13415109	          0.16005670	          0.16621677	          0.11627044	          0.24028531	          0.12014934	          0.24048416	          0.60849347	          0.83085189	          0.22576891	          0.09421421	          0.05000006	          0.20433414	          0.08130335	          0.05000005	
          0.53382563	        -11.54317697	         -1.23639799	         -1.52155267	          1.85058771	          0.89003122	          0.00189959	         38.66143988	          6.15698790	          1.66211356	        -28.58190904	         -3.30368841	         -4.57842244	          0.04629217	          6.94389077	          1.46570216	          2.52067195	        -52.15991025	        -23.83365067	          4.21087086	         10.76894489	          2.22350066	          3.25238659	         -3.75819680	         -0.67172334	        -13.60929133	         13.61733119	         39.10298003	         -0.77678432	        -13.79295866	         19.35301954	         29.03666693	          0.68241406	          0.53341534	          0.33148724	          0.37049162	          0.23659507	          0.38306290	          0.67721425	          0.24492578	          0.60210484	          0.05000126	          0.05000033	          0.07595708	          0.28952636	          0.65963450	          0.53766962	          0.33220425	          0.05000059	          0.05326168	          0.19937929	          0.55678102	          0.37566188	          0.31115662	          0.05000019	          0.05000024	          0.44346260	          0.05000283	          0.77999259	          0.05000012	          0.11396375	          0.12784616	          0.15282287	          0.09585301	          0.05000005	          0.05000004	          0.62687315	          0.51352369	          0.39995205	          0.26629950	          0.14664588	          0.05750026	          0.51991941	          0.47820615	          0.43896712	          0.07260948	          0.05000556	          0.05436129	          0.12416687	          0.09591440	          0.07088215	          0.06161399	          0.05000035	          0.05000059	          0.14551793	          0.44272424	          0.76311134	          0.05000057	          0.05000032	          0.05000039	          0.05000007	          0.99883955	          0.91094215	          0.32746876	          0.05000113	          0.05000024	          0.05000007	          0.53563238	          0.63337604	          0.22029715	          0.58780947	          0.12731820	          0.99113732	          0.05000004	          0.05139008	          0.05000003	          0.13576326	          0.15986505	          0.08806219	          0.12338837	          0.14721564	          0.15288149	          0.13561661	          0.24487386	          0.11051004	          0.31362244	          0.58878330	          0.85758290	          0.20765584	          0.08665557	          0.05000009	          0.19979375	          0.07595777	          0.05000003	
          0.53905921	        -11.49823646	         -1.25655122	         -1.33644966	          1.86939261	          0.88740826	          0.00203933	         38.12650750	          6.36799637	          2.12193999	        -29.38572241	         -1.33389705	         -4.91662883	          0.02744303	          8.00717930	          1.32283084	          2.24488138	        -53.93694606	        -22.68834518	          3.76266990	         10.04919711	          2.27906348	          3.25256037	         -3.61353284	         -0.80278833	        -13.65177163	         13.64208223	         38.81467923	         -0.68188859	        -13.82281615	         19.34811808	         28.99289646	          0.71007025	          0.65410068	          0.50440342	          0.48927449	          0.28327235	          0.54263848	          0.62288245	          0.22527580	          0.55379895	          0.05000195	          0.05000094	          0.06986336	          0.26629820	          0.71728675	          0.63129486	          0.38359778	          0.05000020	          0.05002130	          0.18338355	          0.62930632	          0.44547393	          0.38941177	          0.05000008	          0.05000006	          0.40788455	          0.05000076	          0.83689922	          0.05000004	          0.18951415	          0.19827362	          0.22440826	          0.21216053	          0.12453089	          0.17097396	          0.57658291	          0.47232624	          0.36786819	          0.24493473	          0.13488074	          0.05288712	          0.47820714	          0.43984045	          0.40374953	          0.06678416	          0.05000008	          0.05000008	          0.11420532	          0.08821942	          0.06519550	          0.05667873	          0.05440766	          0.05000107	          0.17534840	          0.40720555	          0.71599192	          0.05436074	          0.05000105	          0.05000064	          0.05000009	          0.99913964	          0.93397497	          0.39999158	          0.05000024	          0.05000008	          0.05000004	          0.49265947	          0.58256132	          0.20262309	          0.54065076	          0.11710369	          0.99342971	          0.05000004	          0.05000003	          0.05000003	          0.12487123	          0.14703938	          0.08099711	          0.11348913	          0.13540479	          0.14061607	          0.14909757	          0.25756463	          0.10164409	          0.35830823	          0.56628612	          0.87819724	          0.19099596	          0.07970338	          0.05000065	          0.21057166	          0.06986384	          0.05000011	
